<mxfile host="app.diagrams.net" modified="2024-06-14T17:17:27.598Z" agent="Mozilla/5.0 (X11; Linux x86_64) AppleWebKit/537.36 (KHTML, like Gecko) Chrome/125.0.0.0 Safari/537.36" etag="QZDP-yQqcV8oiI6dxVTW" version="24.5.4" type="github">
  <diagram name="Pagina-1" id="o3CgOY3ZWr0jzI76rR7m">
    <mxGraphModel dx="651" dy="809" grid="0" gridSize="10" guides="1" tooltips="1" connect="1" arrows="1" fold="1" page="0" pageScale="1" pageWidth="827" pageHeight="1169" math="0" shadow="0">
      <root>
        <mxCell id="0" />
        <mxCell id="1" parent="0" />
        <mxCell id="HK-nCiQKvHDhyFePVv0y-1" value="" style="shape=folder;fontStyle=1;spacingTop=10;tabWidth=210;tabHeight=30;tabPosition=left;html=1;whiteSpace=wrap;" vertex="1" parent="1">
          <mxGeometry x="19" y="230" width="651" height="320" as="geometry" />
        </mxCell>
        <mxCell id="HK-nCiQKvHDhyFePVv0y-2" value="&lt;font color=&quot;#ffffff&quot;&gt;Interfaccia GestioneUtente&lt;/font&gt;" style="text;strokeColor=#C73500;fillColor=#fa6800;html=1;align=center;verticalAlign=middle;whiteSpace=wrap;rounded=0;fontSize=16;fontColor=#000000;" vertex="1" parent="1">
          <mxGeometry x="20" y="230" width="211" height="30" as="geometry" />
        </mxCell>
        <mxCell id="HK-nCiQKvHDhyFePVv0y-3" style="edgeStyle=none;curved=1;rounded=0;orthogonalLoop=1;jettySize=auto;html=1;exitX=0.5;exitY=0;exitDx=0;exitDy=0;fontSize=12;startSize=8;endSize=8;" edge="1" parent="1">
          <mxGeometry relative="1" as="geometry">
            <mxPoint x="434" y="314" as="sourcePoint" />
            <mxPoint x="434" y="314" as="targetPoint" />
          </mxGeometry>
        </mxCell>
        <mxCell id="HK-nCiQKvHDhyFePVv0y-4" value="&lt;font color=&quot;#ffffff&quot;&gt;View GestioneAccount&lt;br&gt;&lt;/font&gt;" style="swimlane;fontStyle=1;align=center;verticalAlign=top;childLayout=stackLayout;horizontal=1;startSize=26;horizontalStack=0;resizeParent=1;resizeParentMax=0;resizeLast=0;collapsible=1;marginBottom=0;whiteSpace=wrap;html=1;fillColor=#fa6800;fontColor=#000000;strokeColor=#C73500;" vertex="1" parent="1">
          <mxGeometry x="90" y="430" width="168" height="86" as="geometry" />
        </mxCell>
        <mxCell id="HK-nCiQKvHDhyFePVv0y-5" value="&lt;font color=&quot;#ffffff&quot;&gt;+ cambiaNome(String)&lt;/font&gt;&lt;div&gt;&lt;font color=&quot;#ffffff&quot;&gt;+ cambiaPassword(String)&lt;/font&gt;&lt;/div&gt;" style="text;strokeColor=#C73500;fillColor=#fa6800;align=left;verticalAlign=top;spacingLeft=4;spacingRight=4;overflow=hidden;rotatable=0;points=[[0,0.5],[1,0.5]];portConstraint=eastwest;whiteSpace=wrap;html=1;fontColor=#000000;" vertex="1" parent="HK-nCiQKvHDhyFePVv0y-4">
          <mxGeometry y="26" width="168" height="40" as="geometry" />
        </mxCell>
        <mxCell id="HK-nCiQKvHDhyFePVv0y-6" value="" style="line;strokeWidth=1;fillColor=#fa6800;align=left;verticalAlign=middle;spacingTop=-1;spacingLeft=3;spacingRight=3;rotatable=0;labelPosition=right;points=[];portConstraint=eastwest;strokeColor=#FF8000;fontColor=#000000;" vertex="1" parent="HK-nCiQKvHDhyFePVv0y-4">
          <mxGeometry y="66" width="168" as="geometry" />
        </mxCell>
        <mxCell id="HK-nCiQKvHDhyFePVv0y-7" value="&lt;div&gt;&lt;br&gt;&lt;/div&gt;&lt;div&gt;&lt;br&gt;&lt;/div&gt;" style="text;strokeColor=#C73500;fillColor=#fa6800;align=left;verticalAlign=top;spacingLeft=4;spacingRight=4;overflow=hidden;rotatable=0;points=[[0,0.5],[1,0.5]];portConstraint=eastwest;whiteSpace=wrap;html=1;fontColor=#000000;" vertex="1" parent="HK-nCiQKvHDhyFePVv0y-4">
          <mxGeometry y="66" width="168" height="20" as="geometry" />
        </mxCell>
        <mxCell id="HK-nCiQKvHDhyFePVv0y-8" value="&lt;font color=&quot;#ffffff&quot;&gt;ViewGestioneMetodoPagamento&lt;/font&gt;" style="swimlane;fontStyle=1;align=center;verticalAlign=top;childLayout=stackLayout;horizontal=1;startSize=26;horizontalStack=0;resizeParent=1;resizeParentMax=0;resizeLast=0;collapsible=1;marginBottom=0;whiteSpace=wrap;html=1;fillColor=#fa6800;fontColor=#000000;strokeColor=#C73500;" vertex="1" parent="1">
          <mxGeometry x="444" y="430" width="209" height="70" as="geometry" />
        </mxCell>
        <mxCell id="HK-nCiQKvHDhyFePVv0y-9" value="&lt;font color=&quot;#ffffff&quot;&gt;+ aggiornaMetodoPagamento(Enum)&lt;/font&gt;" style="text;strokeColor=#C73500;fillColor=#fa6800;align=left;verticalAlign=top;spacingLeft=4;spacingRight=4;overflow=hidden;rotatable=0;points=[[0,0.5],[1,0.5]];portConstraint=eastwest;whiteSpace=wrap;html=1;fontColor=#000000;" vertex="1" parent="HK-nCiQKvHDhyFePVv0y-8">
          <mxGeometry y="26" width="209" height="24" as="geometry" />
        </mxCell>
        <mxCell id="HK-nCiQKvHDhyFePVv0y-10" value="" style="line;strokeWidth=1;fillColor=#fa6800;align=left;verticalAlign=middle;spacingTop=-1;spacingLeft=3;spacingRight=3;rotatable=0;labelPosition=right;points=[];portConstraint=eastwest;strokeColor=#FF8000;fontColor=#000000;" vertex="1" parent="HK-nCiQKvHDhyFePVv0y-8">
          <mxGeometry y="50" width="209" as="geometry" />
        </mxCell>
        <mxCell id="HK-nCiQKvHDhyFePVv0y-11" value="&lt;div&gt;&lt;br&gt;&lt;/div&gt;&lt;div&gt;&lt;br&gt;&lt;/div&gt;" style="text;strokeColor=#C73500;fillColor=#fa6800;align=left;verticalAlign=top;spacingLeft=4;spacingRight=4;overflow=hidden;rotatable=0;points=[[0,0.5],[1,0.5]];portConstraint=eastwest;whiteSpace=wrap;html=1;fontColor=#000000;" vertex="1" parent="HK-nCiQKvHDhyFePVv0y-8">
          <mxGeometry y="50" width="209" height="20" as="geometry" />
        </mxCell>
        <mxCell id="HK-nCiQKvHDhyFePVv0y-12" value="&lt;font color=&quot;#ffffff&quot;&gt;Home GestioneUtente&lt;br&gt;&lt;/font&gt;" style="swimlane;fontStyle=1;align=center;verticalAlign=top;childLayout=stackLayout;horizontal=1;startSize=26;horizontalStack=0;resizeParent=1;resizeParentMax=0;resizeLast=0;collapsible=1;marginBottom=0;whiteSpace=wrap;html=1;fillColor=#fa6800;fontColor=#000000;strokeColor=#C73500;" vertex="1" parent="1">
          <mxGeometry x="271" y="310" width="258" height="70" as="geometry" />
        </mxCell>
        <mxCell id="HK-nCiQKvHDhyFePVv0y-13" value="&lt;font color=&quot;#ffffff&quot;&gt;+ list&amp;lt;String&amp;gt; visualizzaAbbonamentiPassati()&lt;/font&gt;" style="text;strokeColor=#C73500;fillColor=#fa6800;align=left;verticalAlign=top;spacingLeft=4;spacingRight=4;overflow=hidden;rotatable=0;points=[[0,0.5],[1,0.5]];portConstraint=eastwest;whiteSpace=wrap;html=1;fontColor=#000000;" vertex="1" parent="HK-nCiQKvHDhyFePVv0y-12">
          <mxGeometry y="26" width="258" height="24" as="geometry" />
        </mxCell>
        <mxCell id="HK-nCiQKvHDhyFePVv0y-14" value="" style="line;strokeWidth=1;fillColor=#fa6800;align=left;verticalAlign=middle;spacingTop=-1;spacingLeft=3;spacingRight=3;rotatable=0;labelPosition=right;points=[];portConstraint=eastwest;strokeColor=#FF8000;fontColor=#000000;" vertex="1" parent="HK-nCiQKvHDhyFePVv0y-12">
          <mxGeometry y="50" width="258" as="geometry" />
        </mxCell>
        <mxCell id="HK-nCiQKvHDhyFePVv0y-15" value="&lt;div&gt;&lt;br&gt;&lt;/div&gt;&lt;div&gt;&lt;br&gt;&lt;/div&gt;" style="text;strokeColor=#C73500;fillColor=#fa6800;align=left;verticalAlign=top;spacingLeft=4;spacingRight=4;overflow=hidden;rotatable=0;points=[[0,0.5],[1,0.5]];portConstraint=eastwest;whiteSpace=wrap;html=1;fontColor=#000000;" vertex="1" parent="HK-nCiQKvHDhyFePVv0y-12">
          <mxGeometry y="50" width="258" height="20" as="geometry" />
        </mxCell>
        <mxCell id="HK-nCiQKvHDhyFePVv0y-17" style="edgeStyle=none;curved=0;rounded=0;orthogonalLoop=1;jettySize=auto;html=1;exitX=1;exitY=0.5;exitDx=0;exitDy=0;fontSize=12;startSize=8;endSize=8;" edge="1" parent="1" source="HK-nCiQKvHDhyFePVv0y-13">
          <mxGeometry relative="1" as="geometry">
            <mxPoint x="571" y="428" as="targetPoint" />
            <Array as="points">
              <mxPoint x="570" y="348" />
            </Array>
          </mxGeometry>
        </mxCell>
        <mxCell id="HK-nCiQKvHDhyFePVv0y-18" style="edgeStyle=none;curved=0;rounded=0;orthogonalLoop=1;jettySize=auto;html=1;fontSize=12;startSize=8;endSize=8;entryX=0.613;entryY=0.025;entryDx=0;entryDy=0;entryPerimeter=0;" edge="1" parent="1">
          <mxGeometry relative="1" as="geometry">
            <mxPoint x="269" y="349" as="sourcePoint" />
            <mxPoint x="171.94999999999993" y="430.88" as="targetPoint" />
            <Array as="points">
              <mxPoint x="172" y="349.13" />
            </Array>
          </mxGeometry>
        </mxCell>
        <mxCell id="HK-nCiQKvHDhyFePVv0y-19" value="" style="shape=folder;fontStyle=1;spacingTop=10;tabWidth=210;tabHeight=30;tabPosition=left;html=1;whiteSpace=wrap;" vertex="1" parent="1">
          <mxGeometry x="20" y="677" width="719" height="309" as="geometry" />
        </mxCell>
        <mxCell id="HK-nCiQKvHDhyFePVv0y-20" value="&lt;font color=&quot;#ffffff&quot;&gt;Interfaccia Navigazione&lt;br&gt;&lt;/font&gt;" style="text;strokeColor=#C73500;fillColor=#fa6800;html=1;align=center;verticalAlign=middle;whiteSpace=wrap;rounded=0;fontSize=16;fontColor=#000000;" vertex="1" parent="1">
          <mxGeometry x="20" y="677" width="211" height="30" as="geometry" />
        </mxCell>
        <mxCell id="HK-nCiQKvHDhyFePVv0y-21" style="edgeStyle=none;curved=1;rounded=0;orthogonalLoop=1;jettySize=auto;html=1;exitX=0.5;exitY=0;exitDx=0;exitDy=0;fontSize=12;startSize=8;endSize=8;" edge="1" parent="1">
          <mxGeometry relative="1" as="geometry">
            <mxPoint x="435" y="713" as="sourcePoint" />
            <mxPoint x="435" y="713" as="targetPoint" />
          </mxGeometry>
        </mxCell>
        <mxCell id="HK-nCiQKvHDhyFePVv0y-22" value="&lt;font color=&quot;#ffffff&quot;&gt;Home Navigazione&lt;/font&gt;" style="swimlane;fontStyle=1;align=center;verticalAlign=top;childLayout=stackLayout;horizontal=1;startSize=26;horizontalStack=0;resizeParent=1;resizeParentMax=0;resizeLast=0;collapsible=1;marginBottom=0;whiteSpace=wrap;html=1;fillColor=#fa6800;fontColor=#000000;strokeColor=#C73500;" vertex="1" parent="1">
          <mxGeometry x="196" y="734" width="187" height="101" as="geometry" />
        </mxCell>
        <mxCell id="HK-nCiQKvHDhyFePVv0y-23" value="&lt;font color=&quot;#ffffff&quot;&gt;+ boolean selezionaFiltro(Enum)&lt;/font&gt;&lt;div&gt;&lt;font color=&quot;#ffffff&quot;&gt;+ boolean rmuoviFiltro(Enum)&lt;/font&gt;&lt;/div&gt;&lt;div&gt;&lt;font color=&quot;#ffffff&quot;&gt;+ listra &amp;lt;Filtri&amp;gt; mostraFiltro()&lt;/font&gt;&lt;/div&gt;" style="text;strokeColor=#C73500;fillColor=#fa6800;align=left;verticalAlign=top;spacingLeft=4;spacingRight=4;overflow=hidden;rotatable=0;points=[[0,0.5],[1,0.5]];portConstraint=eastwest;whiteSpace=wrap;html=1;fontColor=#000000;" vertex="1" parent="HK-nCiQKvHDhyFePVv0y-22">
          <mxGeometry y="26" width="187" height="55" as="geometry" />
        </mxCell>
        <mxCell id="HK-nCiQKvHDhyFePVv0y-24" value="" style="line;strokeWidth=1;fillColor=#fa6800;align=left;verticalAlign=middle;spacingTop=-1;spacingLeft=3;spacingRight=3;rotatable=0;labelPosition=right;points=[];portConstraint=eastwest;strokeColor=#FF8000;fontColor=#000000;" vertex="1" parent="HK-nCiQKvHDhyFePVv0y-22">
          <mxGeometry y="81" width="187" as="geometry" />
        </mxCell>
        <mxCell id="HK-nCiQKvHDhyFePVv0y-25" value="&lt;div&gt;&lt;br&gt;&lt;/div&gt;&lt;div&gt;&lt;br&gt;&lt;/div&gt;" style="text;strokeColor=#C73500;fillColor=#fa6800;align=left;verticalAlign=top;spacingLeft=4;spacingRight=4;overflow=hidden;rotatable=0;points=[[0,0.5],[1,0.5]];portConstraint=eastwest;whiteSpace=wrap;html=1;fontColor=#000000;" vertex="1" parent="HK-nCiQKvHDhyFePVv0y-22">
          <mxGeometry y="81" width="187" height="20" as="geometry" />
        </mxCell>
        <mxCell id="HK-nCiQKvHDhyFePVv0y-27" style="edgeStyle=none;curved=0;rounded=0;orthogonalLoop=1;jettySize=auto;html=1;fontSize=12;startSize=8;endSize=8;" edge="1" parent="1">
          <mxGeometry relative="1" as="geometry">
            <mxPoint x="370" y="874" as="targetPoint" />
            <Array as="points">
              <mxPoint x="370" y="854" />
            </Array>
            <mxPoint x="370" y="835" as="sourcePoint" />
          </mxGeometry>
        </mxCell>
        <mxCell id="HK-nCiQKvHDhyFePVv0y-28" style="edgeStyle=none;curved=0;rounded=0;orthogonalLoop=1;jettySize=auto;html=1;fontSize=12;startSize=8;endSize=8;entryX=0.613;entryY=0.025;entryDx=0;entryDy=0;entryPerimeter=0;" edge="1" parent="1">
          <mxGeometry relative="1" as="geometry">
            <mxPoint x="193.05" y="744.25" as="sourcePoint" />
            <mxPoint x="74.99999999999993" y="826" as="targetPoint" />
            <Array as="points">
              <mxPoint x="75.05" y="744.25" />
            </Array>
          </mxGeometry>
        </mxCell>
        <mxCell id="HK-nCiQKvHDhyFePVv0y-29" value="&lt;font color=&quot;#ffffff&quot;&gt;View Ricerca&lt;/font&gt;" style="swimlane;fontStyle=1;align=center;verticalAlign=top;childLayout=stackLayout;horizontal=1;startSize=26;horizontalStack=0;resizeParent=1;resizeParentMax=0;resizeLast=0;collapsible=1;marginBottom=0;whiteSpace=wrap;html=1;fillColor=#fa6800;fontColor=#000000;strokeColor=#C73500;" vertex="1" parent="1">
          <mxGeometry x="33" y="831" width="150" height="70" as="geometry" />
        </mxCell>
        <mxCell id="HK-nCiQKvHDhyFePVv0y-30" value="&lt;font color=&quot;#ffffff&quot;&gt;+ List&amp;lt;Palestra&amp;gt; ricerca()&lt;/font&gt;" style="text;strokeColor=#C73500;fillColor=#fa6800;align=left;verticalAlign=top;spacingLeft=4;spacingRight=4;overflow=hidden;rotatable=0;points=[[0,0.5],[1,0.5]];portConstraint=eastwest;whiteSpace=wrap;html=1;fontColor=#000000;" vertex="1" parent="HK-nCiQKvHDhyFePVv0y-29">
          <mxGeometry y="26" width="150" height="24" as="geometry" />
        </mxCell>
        <mxCell id="HK-nCiQKvHDhyFePVv0y-31" value="" style="line;strokeWidth=1;fillColor=#fa6800;align=left;verticalAlign=middle;spacingTop=-1;spacingLeft=3;spacingRight=3;rotatable=0;labelPosition=right;points=[];portConstraint=eastwest;strokeColor=#FF8000;fontColor=#000000;" vertex="1" parent="HK-nCiQKvHDhyFePVv0y-29">
          <mxGeometry y="50" width="150" as="geometry" />
        </mxCell>
        <mxCell id="HK-nCiQKvHDhyFePVv0y-32" value="&lt;div&gt;&lt;br&gt;&lt;/div&gt;&lt;div&gt;&lt;br&gt;&lt;/div&gt;" style="text;strokeColor=#C73500;fillColor=#fa6800;align=left;verticalAlign=top;spacingLeft=4;spacingRight=4;overflow=hidden;rotatable=0;points=[[0,0.5],[1,0.5]];portConstraint=eastwest;whiteSpace=wrap;html=1;fontColor=#000000;" vertex="1" parent="HK-nCiQKvHDhyFePVv0y-29">
          <mxGeometry y="50" width="150" height="20" as="geometry" />
        </mxCell>
        <mxCell id="HK-nCiQKvHDhyFePVv0y-33" value="&lt;font color=&quot;#ffffff&quot;&gt;View SelezioneAbbonamento&lt;br&gt;&lt;/font&gt;" style="swimlane;fontStyle=1;align=center;verticalAlign=top;childLayout=stackLayout;horizontal=1;startSize=26;horizontalStack=0;resizeParent=1;resizeParentMax=0;resizeLast=0;collapsible=1;marginBottom=0;whiteSpace=wrap;html=1;fillColor=#fa6800;fontColor=#000000;strokeColor=#C73500;" vertex="1" parent="1">
          <mxGeometry x="261.5" y="877" width="182.5" height="70" as="geometry" />
        </mxCell>
        <mxCell id="HK-nCiQKvHDhyFePVv0y-34" value="&lt;font color=&quot;#ffffff&quot;&gt;+ seleziona(Abbonamento)&lt;/font&gt;" style="text;strokeColor=#C73500;fillColor=#fa6800;align=left;verticalAlign=top;spacingLeft=4;spacingRight=4;overflow=hidden;rotatable=0;points=[[0,0.5],[1,0.5]];portConstraint=eastwest;whiteSpace=wrap;html=1;fontColor=#000000;" vertex="1" parent="HK-nCiQKvHDhyFePVv0y-33">
          <mxGeometry y="26" width="182.5" height="24" as="geometry" />
        </mxCell>
        <mxCell id="HK-nCiQKvHDhyFePVv0y-35" value="" style="line;strokeWidth=1;fillColor=#fa6800;align=left;verticalAlign=middle;spacingTop=-1;spacingLeft=3;spacingRight=3;rotatable=0;labelPosition=right;points=[];portConstraint=eastwest;strokeColor=#FF8000;fontColor=#000000;" vertex="1" parent="HK-nCiQKvHDhyFePVv0y-33">
          <mxGeometry y="50" width="182.5" as="geometry" />
        </mxCell>
        <mxCell id="HK-nCiQKvHDhyFePVv0y-36" value="&lt;div&gt;&lt;br&gt;&lt;/div&gt;&lt;div&gt;&lt;br&gt;&lt;/div&gt;" style="text;strokeColor=#C73500;fillColor=#fa6800;align=left;verticalAlign=top;spacingLeft=4;spacingRight=4;overflow=hidden;rotatable=0;points=[[0,0.5],[1,0.5]];portConstraint=eastwest;whiteSpace=wrap;html=1;fontColor=#000000;" vertex="1" parent="HK-nCiQKvHDhyFePVv0y-33">
          <mxGeometry y="50" width="182.5" height="20" as="geometry" />
        </mxCell>
        <mxCell id="HK-nCiQKvHDhyFePVv0y-37" value="&lt;font color=&quot;#ffffff&quot;&gt;View GestionePagamento&lt;/font&gt;" style="swimlane;fontStyle=1;align=center;verticalAlign=top;childLayout=stackLayout;horizontal=1;startSize=26;horizontalStack=0;resizeParent=1;resizeParentMax=0;resizeLast=0;collapsible=1;marginBottom=0;whiteSpace=wrap;html=1;fillColor=#fa6800;fontColor=#000000;strokeColor=#C73500;" vertex="1" parent="1">
          <mxGeometry x="504" y="877" width="203.5" height="70" as="geometry" />
        </mxCell>
        <mxCell id="HK-nCiQKvHDhyFePVv0y-38" value="&lt;font color=&quot;#ffffff&quot;&gt;+ selezionaMetodoPagamento(Tipo)&lt;/font&gt;" style="text;strokeColor=#C73500;fillColor=#fa6800;align=left;verticalAlign=top;spacingLeft=4;spacingRight=4;overflow=hidden;rotatable=0;points=[[0,0.5],[1,0.5]];portConstraint=eastwest;whiteSpace=wrap;html=1;fontColor=#000000;" vertex="1" parent="HK-nCiQKvHDhyFePVv0y-37">
          <mxGeometry y="26" width="203.5" height="24" as="geometry" />
        </mxCell>
        <mxCell id="HK-nCiQKvHDhyFePVv0y-39" value="" style="line;strokeWidth=1;fillColor=#fa6800;align=left;verticalAlign=middle;spacingTop=-1;spacingLeft=3;spacingRight=3;rotatable=0;labelPosition=right;points=[];portConstraint=eastwest;strokeColor=#FF8000;fontColor=#000000;" vertex="1" parent="HK-nCiQKvHDhyFePVv0y-37">
          <mxGeometry y="50" width="203.5" as="geometry" />
        </mxCell>
        <mxCell id="HK-nCiQKvHDhyFePVv0y-40" value="&lt;div&gt;&lt;br&gt;&lt;/div&gt;&lt;div&gt;&lt;br&gt;&lt;/div&gt;" style="text;strokeColor=#C73500;fillColor=#fa6800;align=left;verticalAlign=top;spacingLeft=4;spacingRight=4;overflow=hidden;rotatable=0;points=[[0,0.5],[1,0.5]];portConstraint=eastwest;whiteSpace=wrap;html=1;fontColor=#000000;" vertex="1" parent="HK-nCiQKvHDhyFePVv0y-37">
          <mxGeometry y="50" width="203.5" height="20" as="geometry" />
        </mxCell>
        <mxCell id="HK-nCiQKvHDhyFePVv0y-41" value="" style="endArrow=classic;html=1;rounded=0;" edge="1" parent="1">
          <mxGeometry width="50" height="50" relative="1" as="geometry">
            <mxPoint x="444.5" y="895.5" as="sourcePoint" />
            <mxPoint x="502" y="896" as="targetPoint" />
          </mxGeometry>
        </mxCell>
      </root>
    </mxGraphModel>
  </diagram>
</mxfile>
